<?xml version="1.0" encoding="utf-8"?>
<!-- Uploaded to: SVG Repo, www.svgrepo.com, Generator: SVG Repo Mixer Tools -->
<!DOCTYPE svg PUBLIC "-//W3C//DTD SVG 1.1//EN" "http://www.w3.org/Graphics/SVG/1.1/DTD/svg11.dtd">
<svg fill="#000000" width="800px" height="800px" viewBox="0 0 1000 1000" version="1.1" xmlns="http://www.w3.org/2000/svg" xmlns:xlink="http://www.w3.org/1999/xlink"  enable-background="new 0 0 1000 1000" xml:space="preserve">

<g>
<g transform="translate(0.000000,511.000000) scale(0.100000,-0.100000)">
<path d="M4610.9,4988.1c-862-165.6-1428.6-883.9-1578.3-2007.2c-51.9-395.1-29.9-546.7,111.7-742.2c83.8-117.7,79.8-135.7-25.9-135.7c-83.8,0-257.4-99.8-371.1-213.5c-241.4-243.4-375.1-498.8-596.6-1135.3C1945.2,167.6,1649.9-664.5,1270.8-1714c-185.6-516.8-301.3-863.9-301.3-909.8c0-129.7,53.9-159.6,542.7-297.3c239.4-67.9,454.9-123.7,480.8-123.7c43.9,0,113.7,53.9,113.7,87.8c0,14,879.9,1837.6,929.8,1925.4c27.9,49.9,27.9,49.9,16-27.9c-20-135.7-301.3-1612.2-466.9-2468.2c-169.6-862-169.6-879.9-75.8-941.8c141.7-91.8,692.4-223.4,1193.2-285.3c359.2-41.9,1436.6-47.9,1875.6-10c756.2,67.8,1480.5,199.5,1727.9,315.3c123.7,57.9,123.7,57.9-39.9,881.9c-373.1,1881.6-494.8,2516.1-486.8,2542c4,10,221.5-415,482.9-945.8c259.4-528.8,488.8-979.7,504.8-997.6c17.9-20,57.9-35.9,89.8-35.9c31.9,0,259.4,57.9,508.8,129.7c333.2,95.8,456.9,139.7,478.9,169.6c20,27.9,49.9,39.9,107.7,39.9c55.9,0,77.8,8,77.8,29.9c0,29.9-1271,3611.5-1378.7,3884.8c-91.8,231.4-235.5,448.9-401.1,606.6c-119.7,113.7-177.6,151.6-331.2,215.5l-185.6,77.8l67.8,71.8c233.4,241.4,259.4,728.3,71.8,1314.9c-159.6,494.8-439,903.9-790.1,1153.3c-149.6,107.7-409,231.5-584.6,277.3C5325.2,5012.1,4804.5,5026,4610.9,4988.1z M5391.1,4694.8c429-111.7,826.1-458.9,1061.5-925.8c63.8-127.7,183.6-452.9,183.6-500.8c0-23.9-235.4-27.9-1626.1-27.9c-953.7,0-1626.1,8-1626.1,18c0,43.9,149.6,441,213.5,568.7c247.4,490.8,590.6,778.2,1053.5,879.9C4844.4,4750.7,5203.5,4744.7,5391.1,4694.8z M6696,2883.1c59.9-113.7-8-293.3-173.6-456.9c-97.8-95.8-137.7-119.7-245.4-149.6c-285.3-79.8-1219.1-490.8-1362.8-600.6c-35.9-27.9-77.8-51.9-91.8-51.9c-12,0-89.8,55.9-173.6,125.7c-293.3,245.4-618.5,419-939.8,502.8c-141.7,37.9-261.4,147.7-345.2,317.3c-67.8,133.7-71.8,181.6-31.9,281.3l29.9,69.8H5018C6636.1,2921,6676,2921,6696,2883.1z M6542.3,1941.3c67.8-33.9,125.7-63.8,127.7-65.8c2-2-22-83.8-53.9-183.6c-111.7-351.2-125.7-696.3-39.9-1153.3c71.8-395.1,47.9-806.1-61.8-1039.5l-41.9-89.8H5850h-620.5l-31.9,65.8c-81.8,165.6-486.9,235.4-814.1,141.7l-47.9-14l14,157.6c59.9,688.4,263.4,1219.1,582.6,1522.4c149.6,143.7,345.2,255.4,816.1,462.9c181.6,79.8,614.5,247.4,664.4,255.4C6414.7,2003.2,6474.5,1975.3,6542.3,1941.3z M3715,1915.4c265.4-89.8,568.7-267.4,780.2-458.9l103.7-93.8l-91.8-133.7c-247.4-359.1-405-871.9-464.9-1510.4c-10-119.7-20-239.4-20-263.4c0-45.9-4-45.9-249.4-45.9h-249.4l-21.9,55.9c-101.8,263.4-123.7,640.5-59.9,1045.5c85.8,554.7,75.8,895.9-31.9,1209.1c-25.9,81.8-45.9,149.6-41.9,153.6c20,16,169.6,87.8,187.6,89.8C3567.4,1963.3,3639.2,1941.3,3715,1915.4z M7154.9,1404.6c101.7-171.6,105.7-177.6,490.8-1277c271.4-780.2,887.9-2514.1,935.8-2635.8c10-25.9-39.9-49.9-259.4-127.7c-149.6-51.9-275.3-89.8-281.3-83.8c-6,6-275.4,530.7-596.6,1163.3C6913.5-508.8,6861.6-397.1,6877.5-343.2c23.9,83.8,22,650.5-2,810.1c-57.9,375.1-81.8,638.5-69.8,778.2c12,139.7,61.9,409,83.8,444.9C6907.5,1719.9,7075.1,1540.3,7154.9,1404.6z M3092.5,1532.3c49.9-151.6,51.9-614.5,2-850c-37.9-183.6-43.9-826-10-953.8l21.9-83.8l-572.6-1179.2c-317.2-650.4-576.6-1185.2-580.6-1189.2c-12-18-604.6,147.6-604.6,169.6c0,51.9,1286.9,3639.4,1350.8,3769.1c113.7,225.5,287.3,458.9,333.2,442.9C3044.6,1654,3070.6,1598.2,3092.5,1532.3z M4802.5-670.5c39.9-12,95.8-43.9,125.7-71.8c51.9-51.9,51.9-55.9,51.9-347.2v-295.3l-59.9-49.9c-127.7-107.7-391.1-107.7-518.8,0l-59.9,49.9v289.3c0,167.6,8,305.3,21.9,329.2C4413.4-674.5,4636.9-624.6,4802.5-670.5z M4022.3-1069.5v-159.6h-319.2h-319.2v159.6v159.6h319.2h319.2V-1069.5z M6576.3-1069.5v-159.6h-638.5h-638.5v159.6v159.6h638.5h638.5V-1069.5z M3569.4-1921.5c-95.8-207.5-175.6-413-181.6-460.9c-12-109.7,35.9-237.4,121.7-317.3c115.7-109.7,375.1-177.6,474.9-125.7c37.9,21.9,37.9,6,37.9-820v-842l-143.7,14c-351.2,33.9-971.7,161.6-1019.6,209.5c-14,14,61.8,435,243.4,1342.8c145.7,728.3,267.4,1334.8,271.4,1348.8c6,16,61.9,23.9,187.6,23.9H3739L3569.4-1921.5z M4299.7-1682.1c16-10-405-863.9-425-863.9c-49.9,2-201.5,91.8-207.5,123.7c-4,18,87.8,221.5,203.5,452.9l211.5,419l103.8-61.9C4243.8-1648.1,4295.7-1680.1,4299.7-1682.1z M5389.1-1967.4c113.7-229.5,203.5-429,197.5-445c-12-31.9-133.7-93.8-183.6-91.8c-23.9,0-89.8,115.7-227.5,395.1L4984-1714l87.8,61.9c47.9,35.9,87.8,71.8,87.8,83.8c0,10,4,20,10,20C5175.6-1548.4,5273.4-1735.9,5389.1-1967.4z M6913.5-2909.2c147.6-732.3,263.4-1338.8,255.4-1346.8c-23.9-21.9-981.7-177.6-1320.9-215.5c-183.6-20-570.6-37.9-911.8-43.9l-594.6-12v1091.4v1089.4l129.7,259.4c79.8,157.6,141.7,259.4,159.6,259.4c17.9,0,113.7-167.6,257.4-456.9c145.7-287.3,249.4-470.9,283.3-498.8c27.9-22,99.8-55.9,157.6-73.8c97.8-31.9,109.7-31.9,211.5,2c269.4,87.8,367.1,191.6,365.2,387.1c0,97.8-23.9,161.6-173.6,490.8c-95.8,207.5-173.6,385.1-173.6,393.1c0,10,243.4,14,542.7,12l542.7-6L6913.5-2909.2z"/>
</g>
</g>
</svg>