<?xml version="1.0" encoding="iso-8859-1"?>
<!-- Uploaded to: SVG Repo, www.svgrepo.com, Generator: SVG Repo Mixer Tools -->
<svg fill="#000000" height="800px" width="800px" version="1.1" id="Capa_1" xmlns="http://www.w3.org/2000/svg" xmlns:xlink="http://www.w3.org/1999/xlink" 
	 viewBox="0 0 591.6 591.6" xml:space="preserve">
<g>
	<g>
		<path d="M540.6,0H51C22.848,0,0,22.848,0,51v489.6c0,28.152,22.848,51,51,51h489.6c28.152,0,51-22.848,51-51V51
			C591.6,22.848,568.752,0,540.6,0z M571.2,540.6c0,16.932-13.668,30.6-30.6,30.6H51c-16.932,0-30.6-13.668-30.6-30.6V51
			c0-16.932,13.668-30.6,30.6-30.6h489.6c16.932,0,30.6,13.668,30.6,30.6V540.6z"/>
		<path d="M499.8,204c5.712,0,10.2-4.488,10.2-10.2s-4.488-10.2-10.2-10.2h-30.6v-48.96c0-28.152-22.848-51-51-51H132.6
			c-28.152,0-51,22.848-51,51v322.32c0,28.152,22.848,51,51,51h285.6c28.152,0,51-22.848,51-51V408h30.6
			c5.712,0,10.2-4.488,10.2-10.2s-4.488-10.2-10.2-10.2h-30.6V306h30.6c5.712,0,10.2-4.488,10.2-10.2s-4.488-10.2-10.2-10.2h-30.6
			V204H499.8z M448.8,285.6h-30.6c-5.712,0-10.2,4.488-10.2,10.2s4.488,10.2,10.2,10.2h30.6v81.6h-30.6
			c-5.712,0-10.2,4.488-10.2,10.2s4.488,10.2,10.2,10.2h30.6v48.96c0,16.932-13.668,30.6-30.6,30.6H132.6
			c-16.932,0-30.6-13.668-30.6-30.6V134.64c0-16.932,13.668-30.6,30.6-30.6h285.6c16.932,0,30.6,13.668,30.6,30.6v48.96h-30.6
			c-5.712,0-10.2,4.488-10.2,10.2s4.488,10.2,10.2,10.2h30.6V285.6z"/>
		<path d="M206.04,224.4c-39.372,0-71.4,32.028-71.4,71.4s32.028,71.4,71.4,71.4s71.4-32.028,71.4-71.4S245.412,224.4,206.04,224.4z
			 M206.04,346.8c-28.152,0-51-22.848-51-51s22.848-51,51-51s51,22.848,51,51S234.192,346.8,206.04,346.8z"/>
		<path d="M206.04,260.1c-19.584,0-35.7,16.116-35.7,35.7c0,2.856,2.244,5.1,5.1,5.1s5.1-2.244,5.1-5.1
			c0-14.076,11.424-25.5,25.5-25.5c2.856,0,5.1-2.244,5.1-5.1S208.896,260.1,206.04,260.1z"/>
	</g>
</g>
</svg>